<svg xmlns="http://www.w3.org/2000/svg" viewBox="0 0 256 256"><defs><style>.cls-1{fill:#d7dfc8;}.cls-2{fill:#e8bb8d;}.cls-3{fill:#e5d9ad;}.cls-4{fill:#d27b42;}.cls-5{fill:#ee513b;}.cls-6{fill:#88725f;}.cls-7{fill:#26bbaf;}.cls-8{fill:#faa43c;}</style></defs><g id="Layer_2" data-name="Layer 2"><g id="Layer_1-2" data-name="Layer 1"><g id="cupcake"><circle class="cls-1" cx="128" cy="128" r="128"/><polygon class="cls-2" points="128.29 139.42 128.4 200.35 138.73 200.35 141.62 139.42 128.29 139.42"/><polygon class="cls-3" points="150.47 139.42 145.82 200.35 138.73 200.35 141.62 139.42 150.47 139.42"/><polygon class="cls-2" points="165.75 139.42 157.91 200.35 145.82 200.35 150.47 139.42 165.75 139.42"/><polygon class="cls-3" points="169.14 139.42 160.59 200.35 157.91 200.35 165.75 139.42 169.14 139.42"/><polygon class="cls-2" points="184.01 139.42 172.31 200.35 160.59 200.35 169.14 139.42 184.01 139.42"/><polygon class="cls-2" points="181.83 139.42 192.13 139.42 180.08 200.35 170.9 200.35 181.83 139.42"/><polygon class="cls-2" points="186.97 139.42 195.5 139.42 181.53 200.35 174.7 200.35 186.97 139.42"/><polygon class="cls-3" points="128.29 139.42 128.4 200.35 117.84 200.35 115.19 139.42 128.29 139.42"/><polygon class="cls-2" points="106.09 139.42 110.75 200.35 117.84 200.35 115.19 139.42 106.09 139.42"/><polygon class="cls-3" points="90.82 139.42 98.66 200.35 110.75 200.35 106.09 139.42 90.82 139.42"/><polygon class="cls-2" points="87.41 139.42 95.98 200.35 98.66 200.35 90.82 139.42 87.41 139.42"/><polygon class="cls-3" points="72.52 139.42 84.22 200.35 95.98 200.35 87.41 139.42 72.52 139.42"/><polygon class="cls-3" points="72.52 139.42 64.39 139.42 76.49 200.35 84.22 200.35 72.52 139.42"/><polygon class="cls-3" points="70.06 139.42 61.08 139.42 75.27 200.35 81.87 200.35 70.06 139.42"/><path class="cls-4" d="M190.37,105.54c-23.13-11.14-26.85-40.34-62-40.34h-.11c-35.26,0-38.84,29.2-62,40.34-36.66,17.65-5.24,33.88-5.24,33.88H195.62S227,123.19,190.37,105.54Z"/><path class="cls-5" d="M107.67,48.38A20.73,20.73,0,1,1,128.4,69.11,20.74,20.74,0,0,1,107.67,48.38Z"/><path class="cls-6" d="M46.75,127.81C50,132.24,56,132.29,61,131.53c6-.93,11.9-2.53,18-3.16,17.65-1.83,34.74,2.26,52.32,2.73,9.31.25,18.37-1.28,27.63-2,8.66-.65,16.48.36,24.93,2.13,5.09,1.07,10.91,2.24,16,.76s8-5.23,9.79-10c-1.78-5-7.15-10.65-19.24-16.47-23.13-11.14-26.85-40.34-62-40.34h-.11c-35.26,0-38.84,29.2-62,40.34-16.75,8.07-20.61,15.84-19.87,21.89C46.56,127.56,46.66,127.68,46.75,127.81Z"/><path class="cls-7" d="M128.75,94.47a2,2,0,0,1,1.66,2.34l-.84,5a2,2,0,0,1-2.34,1.66h0a2,2,0,0,1-1.66-2.34l.84-5a2,2,0,0,1,2.34-1.66Z"/><path class="cls-7" d="M97.51,106a2,2,0,0,1-1.64,2.36l-5,.89a2,2,0,0,1-2.36-1.64h0a2,2,0,0,1,1.64-2.35l5-.89A2,2,0,0,1,97.51,106Z"/><path class="cls-7" d="M68.87,116.58a2,2,0,0,1-2.33,1.67l-5-.83a2,2,0,0,1-1.67-2.33h0a2,2,0,0,1,2.34-1.67l5,.83a2,2,0,0,1,1.66,2.33Z"/><path class="cls-8" d="M109.16,115.67a2,2,0,0,1-2.34,1.66l-5-.82a2,2,0,0,1-1.67-2.34h0a2,2,0,0,1,2.34-1.67l5,.83a2,2,0,0,1,1.67,2.34Z"/><path class="cls-8" d="M104.15,89.52a2,2,0,0,1-2.86.14l-3.73-3.37a2,2,0,0,1-.15-2.87h0a2,2,0,0,1,2.87-.14L104,86.66a2,2,0,0,1,.14,2.86Z"/><path class="cls-8" d="M156.6,116.31a2,2,0,0,1-2.86.25l-3.85-3.23a2,2,0,0,1-.26-2.86h0a2,2,0,0,1,2.86-.25l3.86,3.24a2,2,0,0,1,.25,2.85Z"/><path class="cls-8" d="M170.23,99.7a2,2,0,0,1-2.33,1.67l-5-.83a2,2,0,0,1-1.67-2.33h0a2,2,0,0,1,2.33-1.67l5,.83a2,2,0,0,1,1.66,2.33Z"/><path class="cls-8" d="M142.68,80.86a2,2,0,0,1-.76,2.76l-4.37,2.49a2,2,0,0,1-2.77-.76h0a2,2,0,0,1,.76-2.77l4.38-2.48a2,2,0,0,1,2.76.76Z"/><path class="cls-7" d="M180.15,113.43a2,2,0,0,1,2.8-.65l4.27,2.66a2,2,0,0,1,.65,2.8h0a2,2,0,0,1-2.79.65l-4.28-2.66a2,2,0,0,1-.65-2.8Z"/><path class="cls-7" d="M121.68,80.68a2,2,0,0,1-.63,2.8l-4.26,2.68a2,2,0,0,1-2.8-.64h0a2,2,0,0,1,.64-2.8l4.26-2.67a2,2,0,0,1,2.79.63Z"/><path class="cls-7" d="M151.29,78.94A2,2,0,0,1,154,80l2,4.61a2,2,0,0,1-1,2.67h0a2,2,0,0,1-2.68-1l-2-4.6a2,2,0,0,1,1-2.68Z"/></g></g></g></svg>