<svg xmlns="http://www.w3.org/2000/svg" viewBox="0 0 226.63 226.44"><defs><style>.cls-1{fill:#ed1a39;}.cls-2{fill:#fff;}.cls-3{fill:#fffefe;}</style></defs><g id="Layer_2" data-name="Layer 2"><g id="Layer_1-2" data-name="Layer 1"><path class="cls-1" d="M226.63,104.92v17.23a118.65,118.65,0,0,1-1.92,15.24,114.73,114.73,0,0,1-59.56,77.3,106.39,106.39,0,0,1-36.05,11.24c-2.53.31-5.1.12-7.64.51H105.11c-5.18-.46-10.36-.73-15.47-1.87a114.57,114.57,0,0,1-74.45-54.09c-8.16-14-13.42-29-14.69-45.2-1.51-19.21.22-38.06,8.06-56A117,117,0,0,1,30.23,35.94,113.37,113.37,0,0,1,56.66,14.77,109.81,109.81,0,0,1,96,.94c8.4-1.22,16.84-1,25.3-.79C134,.4,145.91,3.6,157.47,8.41a112.15,112.15,0,0,1,33.69,21.88,113.94,113.94,0,0,1,24.11,32.14,106.3,106.3,0,0,1,10.86,35.29C226.42,100.1,226.25,102.53,226.63,104.92Z"/><path class="cls-2" d="M148.36,86.81c-.29,10-3.87,18.54-8.91,26.52-6.74,10.66-15.28,19.75-24.7,28.06-.67.59-1.19,1.17-2.19.28-11.71-10.45-22.34-21.77-29.22-36.09-5.27-11-6.76-22.21-1.16-33.46C88.5,59.4,99,52.48,113.2,52c16.06-.53,31.15,12,34.32,27.78A43.38,43.38,0,0,1,148.36,86.81Z"/><path class="cls-3" d="M102.9,148.9c-6.5.84-12.56,2-18.23,4.68a13.87,13.87,0,0,0-3.84,2.54,2.2,2.2,0,0,0,0,3.6,16.55,16.55,0,0,0,5.85,3.42c10.21,3.81,20.83,4.71,31.61,4.27a73.36,73.36,0,0,0,21.59-3.72,23.47,23.47,0,0,0,6.45-3.22c2.36-1.8,2.4-3.38,0-5.07-4.34-3.07-9.38-4.35-14.48-5.39-2.36-.49-4.75-.79-7.59-1.25,2.42-2.3,4.59-4.39,6.81-6.44a1.3,1.3,0,0,1,1-.24c7,1.45,13.91,3.06,19.58,7.76,5.82,4.82,5.77,11.54-.12,16.32-4.31,3.48-9.4,5.36-14.73,6.54-17,3.8-33.91,3.79-50.63-1.51a26.29,26.29,0,0,1-10.69-5.92c-4.61-4.47-4.69-10-.13-14.52s10.54-6.06,16.43-7.86c2.86-.88,5-.52,6.86,1.88A43.15,43.15,0,0,0,102.9,148.9Z"/><path class="cls-1" d="M95.68,83.46a18.2,18.2,0,0,1,36.39.25,18.2,18.2,0,1,1-36.39-.25Z"/></g></g></svg>