<svg xmlns="http://www.w3.org/2000/svg" viewBox="0 0 151.83 151.88"><defs><style>.cls-1{fill:#ed2224;}.cls-2{fill:#fcfbfa;}</style></defs><g id="Layer_2" data-name="Layer 2"><g id="Layer_1-2" data-name="Layer 1"><path class="cls-1" d="M0,75.89C-.86,34,35.47-.9,77.06,0,118.34.93,152,34.66,151.83,76.31c-.15,41.89-35,76.25-77,75.56A75.66,75.66,0,0,1,0,75.89Z"/><path class="cls-2" d="M111.24,51.63c-.84.93-1.58,1.81-2.38,2.62C102.58,60.57,96.37,67,90,73.15c-2.12,2-2.47,3.23-.1,5.47,6.47,6.14,12.5,12.72,19,18.85,2.5,2.36,2.1,3.64-.1,5.84-7.84,7.82-7.76,7.89-15.63,0-4.33-4.33-8.94-8.43-12.88-13.1-3-3.61-4.86-2.76-7.62.17-5.88,6.25-12.16,12.12-18.09,18.32-1.83,1.92-2.75,1.93-4.69.08-8.64-8.28-8.71-8.2-.24-16.66,4.46-4.45,8.74-9.08,13.39-13.31,2.56-2.32,2.17-3.62-.12-5.81-6.47-6.18-12.64-12.67-19-18.9-1.75-1.71-2.16-2.64-.23-4.73,8.29-8.91,8.18-9,16.66-.43,4.64,4.69,9.43,9.25,14,14,1.84,1.95,2.93,1.76,4.7-.06,6.34-6.53,12.94-12.81,19.23-19.39,2.15-2.24,3.58-2.28,5.55,0s3.95,4,5.91,6.06C110.16,50.19,110.62,50.87,111.24,51.63Z"/></g></g></svg>