<svg xmlns="http://www.w3.org/2000/svg" viewBox="0 0 256 256"><defs><style>.cls-1{fill:#c89938;}.cls-2{fill:#d27b42;}.cls-3{fill:#e8bb8d;}.cls-4,.cls-9{fill:#231f20;}.cls-4{opacity:0.3;}.cls-5{fill:#e56565;}.cls-6,.cls-8{fill:#f1f2f2;}.cls-6{opacity:0.4;}.cls-7{fill:#fbbd90;}.cls-8{opacity:0.5;}.cls-9{opacity:0.2;}.cls-10{fill:#faa43c;}</style></defs><g id="Layer_2" data-name="Layer 2"><g id="Layer_1-2" data-name="Layer 1"><g id="hotdog"><circle class="cls-1" cx="128" cy="128" r="128"/><path class="cls-2" d="M180.94,104.8H75a26.16,26.16,0,1,0,0,52.32h105.9a26.16,26.16,0,1,0,0-52.32Z"/><path class="cls-3" d="M180.94,104.8H75a26.16,26.16,0,1,0,0,52.32h105.9a26.16,26.16,0,1,0,0-52.32Z"/><path class="cls-4" d="M52.74,117.26a26.15,26.15,0,0,0,1.13,29.07H202.11a26.13,26.13,0,0,0,1.12-29.07Z"/><path class="cls-5" d="M206.36,116.42H49.62a14.54,14.54,0,0,0,0,29.08H206.36a14.54,14.54,0,0,0,0-29.08Z"/><path class="cls-6" d="M139.33,116.42s-1.76.13-4.83.27-7.48.38-12.75.52l-8.52.26c-3,.12-6.21.15-9.51.2l-10.16.16c-3.47.07-7,.12-10.5.09H77.79l-5.23-.09c-3.46,0-6.86-.16-10.16-.26l-9.51-.3c-1.51,0-3-.14-4.35-.08a14,14,0,0,0-3.83.76A14.56,14.56,0,0,0,39,121.72a14.76,14.76,0,0,0-2.87,4.57,14.44,14.44,0,0,0-.9,3.41c-.05.41-.08.72-.09.94l0,.32s0-.11,0-.32,0-.53,0-.94a14.53,14.53,0,0,1,13.35-13.23c1.42-.08,2.89,0,4.4-.08s3.06,0,4.65-.12,3.21-.12,4.86-.23l10.16-.59,5.23-.3c1.75-.05,3.51-.14,5.27-.17l5.27,0,5.23.06,10.16.1c3.3,0,6.49,0,9.51.17l8.52.28c2.64.07,5,.15,7.2.28l5.55.29c1.54.07,2.75.17,3.57.23Z"/><path class="cls-4" d="M208,131.63c-.65-12.87-12.1-23.92-26.14-23.92H76c-14,0-25.49,11.05-26.14,23.92Z"/><path class="cls-7" d="M207.08,129.72a26.17,26.17,0,0,0-26.14-24.92H75A26.17,26.17,0,0,0,48.9,129.72Z"/><path class="cls-8" d="M180.94,104.8l-6.26.24c-4,.13-9.68.41-16.51.59s-14.81.46-23.35.63l-26.76.53c-4.55,0-9.11.12-13.59.06s-8.9-.19-13.17-.26l-6.21-.15-1.53,0a11.41,11.41,0,0,0-1.47.07,23,23,0,0,0-2.71.39,25.59,25.59,0,0,0-15.89,10.49,26.31,26.31,0,0,0-3.2,6.25,17.3,17.3,0,0,0-.75,2.53c-.1.37-.18.72-.26,1s-.1.62-.14.88c-.15,1.06-.24,1.62-.24,1.62s.06-.57.16-1.63c0-.26,0-.56.08-.89s.13-.67.2-1a19,19,0,0,1,.62-2.58A24.81,24.81,0,0,1,52.91,117a25.86,25.86,0,0,1,6.24-6.85,26.27,26.27,0,0,1,9.9-4.68A25.07,25.07,0,0,1,72,105c1-.14,2-.12,3-.19H180.94Z"/><path class="cls-9" d="M212.57,143.46c-2.61,0-6.72-1.21-11.47-2.62-4.59-1.37-9.79-2.91-12.63-2.91a31.25,31.25,0,0,0-11,2.53h0a35.94,35.94,0,0,1-13.13,3,36,36,0,0,1-13.14-3h0a30.89,30.89,0,0,0-11-2.54,30.88,30.88,0,0,0-11,2.54h0a36,36,0,0,1-13.14,3,35.87,35.87,0,0,1-13.13-3h0a31.25,31.25,0,0,0-11-2.53,31.25,31.25,0,0,0-11,2.53h0a35.94,35.94,0,0,1-13.13,3c-3.57,0-8.9-1.58-14.06-3.11-4-1.19-8.16-2.42-10-2.42v-5c2.61,0,6.71,1.22,11.46,2.63,4.59,1.36,9.8,2.9,12.64,2.9A30.91,30.91,0,0,0,78.43,136a23,23,0,0,1,4.22-1.56,31.33,31.33,0,0,1,9-1.49,31.33,31.33,0,0,1,9,1.49A22.68,22.68,0,0,1,105,136a30.85,30.85,0,0,0,10.92,2.48A31,31,0,0,0,126.82,136a22.68,22.68,0,0,1,4.22-1.56,28.2,28.2,0,0,1,18.09,0,22.68,22.68,0,0,1,4.22,1.56,30.92,30.92,0,0,0,10.93,2.48A30.91,30.91,0,0,0,175.2,136a22.68,22.68,0,0,1,4.22-1.56,31.33,31.33,0,0,1,9.05-1.49c3.56,0,8.9,1.58,14.06,3.11,4,1.19,8.15,2.42,10,2.42Z"/><path class="cls-10" d="M212.57,142c-2.54,0-6.61-1.2-11.32-2.6s-9.87-2.93-12.78-2.93A31.42,31.42,0,0,0,177.22,139h0A35.49,35.49,0,0,1,164.28,142,35.42,35.42,0,0,1,151.35,139h0a31.58,31.58,0,0,0-11.26-2.58A31.45,31.45,0,0,0,128.83,139h0A35.42,35.42,0,0,1,115.89,142,35.49,35.49,0,0,1,103,139h0a31.56,31.56,0,0,0-11.25-2.58A31.38,31.38,0,0,0,80.45,139h0A35.49,35.49,0,0,1,67.51,142c-3.49,0-8.79-1.57-13.92-3.09-4-1.2-8.22-2.44-10.18-2.44a2,2,0,0,1,0-4c2.54,0,6.61,1.21,11.32,2.61S64.6,138,67.51,138a31.77,31.77,0,0,0,11.26-2.58h0a22.49,22.49,0,0,1,4-1.49,30.66,30.66,0,0,1,8.9-1.47,30.66,30.66,0,0,1,8.9,1.47,22,22,0,0,1,4,1.49h0A31.85,31.85,0,0,0,115.89,138a31.79,31.79,0,0,0,11.27-2.58h0a22.81,22.81,0,0,1,4-1.49,27.68,27.68,0,0,1,17.8,0,21.9,21.9,0,0,1,4,1.49h0A32,32,0,0,0,164.28,138a31.77,31.77,0,0,0,11.26-2.58h0a22.49,22.49,0,0,1,4-1.49,30.66,30.66,0,0,1,8.9-1.47c3.49,0,8.79,1.57,13.91,3.09,4.05,1.2,8.23,2.44,10.19,2.44a2,2,0,0,1,0,4Z"/><path class="cls-2" d="M78.5,110.22c0,.43-1.17.78-2.62.78s-2.61-.35-2.61-.78,1.17-.78,2.61-.78S78.5,109.79,78.5,110.22Z"/><path class="cls-2" d="M92.26,106.8c0,.34-.94.62-2.09.62s-2.1-.28-2.1-.62.94-.63,2.1-.63S92.26,106.45,92.26,106.8Z"/><path class="cls-2" d="M105,110.22c0,.43-1.17.78-2.62.78s-2.61-.35-2.61-.78,1.17-.78,2.61-.78S105,109.79,105,110.22Z"/><path class="cls-2" d="M115.22,107.58c0,.34-.93.62-2.09.62s-2.09-.28-2.09-.62.94-.63,2.09-.63S115.22,107.23,115.22,107.58Z"/><ellipse class="cls-2" cx="134.6" cy="106.01" rx="2.09" ry="0.62"/><path class="cls-2" d="M172.58,107.58c0,.34-.94.62-2.09.62s-2.09-.28-2.09-.62.93-.63,2.09-.63S172.58,107.23,172.58,107.58Z"/><path class="cls-2" d="M153.92,106c0,.35-.93.63-2.09.63s-2.09-.28-2.09-.63.94-.62,2.09-.62S153.92,105.67,153.92,106Z"/><path class="cls-2" d="M131.39,110.22c0,.43-1.17.78-2.61.78s-2.61-.35-2.61-.78,1.17-.78,2.61-.78S131.39,109.79,131.39,110.22Z"/><path class="cls-2" d="M157.84,110.22c0,.43-1.17.78-2.61.78s-2.62-.35-2.62-.78,1.17-.78,2.62-.78S157.84,109.79,157.84,110.22Z"/><path class="cls-2" d="M183.77,110.22c0,.34-.94.62-2.1.62s-2.09-.28-2.09-.62.94-.62,2.09-.62S183.77,109.88,183.77,110.22Z"/></g></g></g></svg>