<svg xmlns="http://www.w3.org/2000/svg" viewBox="0 0 256 256"><defs><style>.cls-1{fill:#ee513b;}.cls-2{fill:#37b4cb;}.cls-3{fill:#231f20;opacity:0.2;}.cls-4{fill:#26bbaf;}</style></defs><g id="Layer_2" data-name="Layer 2"><g id="Layer_1-2" data-name="Layer 1"><g id="fork_spoon" data-name="fork&amp;spoon"><path class="cls-1" d="M0,128A128,128,0,1,1,128,256,128,128,0,0,1,0,128"/><path id="spoon" class="cls-2" d="M77.54,37.33c-2.09-.59-1.42.9.41,3.52l25.76,36.82a2.76,2.76,0,0,1-4.53,3.17l-.12.08L71,43.08c-1-1.41-1.76-2.58-3.17-1.59s-.58,2.11.41,3.52L94.18,84.34l-.12.08a2.76,2.76,0,0,1-4.53,3.17l-.11.08L61.36,49.84c-1-1.42-1.76-2.59-3.17-1.6s-.58,2.11.41,3.52L84.53,91.09l-.11.09a2.76,2.76,0,0,1-4.53,3.17L54.14,57.53c-1.84-2.62-3-3.76-3.17-1.59-.34,4.61,24.59,41.44,24.59,41.44l3.17,4.53,2.13,3,0,0a21,21,0,0,0,16.25,8.73l0,0s10.45.3,15.07,7c30.26,43.62,37.42,61,47.62,75.57,16.64,23.77,20.25,21,22.69,19.31h0c2.44-1.71,6.26-4.16-10.39-27.93C161.91,173,148,160.36,117.38,117c-4.68-6.62-1.39-16.55-1.39-16.55l0,0a21,21,0,0,0-2.65-18.26h0l-2.13-3.06L108,74.64S82,38.59,77.54,37.33Z"/><path class="cls-3" d="M129.21,146.09q2.1-3.24,4.44-6.77c-1.4-1.85-2.84-3.79-4.33-5.8q-2.28,3.1-4.42,5.95C126.41,141.77,127.85,144,129.21,146.09Z"/><path id="fork" class="cls-4" d="M193.37,41h0c-1.23-.86-22.3-15.61-47,19.63-5.75,8.21-10.21,19-10.37,27.06a35.75,35.75,0,0,0,2.51,14.26c.69,3.23,1.48,9.74-1.91,14.54-30.64,43.35-44.52,56-54.72,70.59C65.26,210.84,69.08,213.29,71.52,215l.14-.2-.13.2c2.43,1.71,6,4.46,22.69-19.31,10.19-14.57,17.36-31.95,47.62-75.57,3.34-4.82,9.73-6.31,13-6.76a35.86,35.86,0,0,0,14.26-2.53c7.55-2.91,16.14-10.78,21.89-19C215.66,56.6,194.6,41.85,193.37,41Z"/></g></g></g></svg>