<svg xmlns="http://www.w3.org/2000/svg" viewBox="0 0 151.99 152.09"><defs><style>.cls-1{fill:#5aae47;}.cls-2{fill:#fdfcfa;}</style></defs><g id="Layer_2" data-name="Layer 2"><g id="Layer_1-2" data-name="Layer 1"><path class="cls-1" d="M152,75.93c1.09,42-35.27,76.45-76.46,76.16C35.52,151.81-1,117.7,0,74.2.94,35.24,33.64-.58,77.41,0,117.78.55,153,34.91,152,75.93Z"/><path class="cls-2" d="M67.37,107.71c-.82-.72-1.61-1.32-2.3-2C56.5,97.13,48,88.49,39.35,80c-1.85-1.81-2-2.82-.13-4.76,8-8.58,8-8.67,16.39-.41,3,3,6.11,6,8.91,9.16,2.16,2.46,3.57,2.2,5.81-.08,11-11.19,22.18-22.14,33.17-33.31,2.2-2.24,3.45-2.28,5.7,0,7.72,7.89,7.79,7.77-.13,15.64Q89.65,85.58,70.26,105C69.33,105.88,68.36,106.77,67.37,107.71Z"/></g></g></svg>